<svg width="1120" height="80" viewBox="0 0 1120 80" fill="none" xmlns="http://www.w3.org/2000/svg">
<rect x="72" width="80" height="80" rx="16" fill="#4C1D95" fill-opacity="0.4"/>
<path d="M121.649 47.8751C120.221 45.4067 118.021 43.6367 115.453 42.7976C116.723 42.0415 117.71 40.8893 118.262 39.518C118.814 38.1468 118.9 36.6322 118.508 35.207C118.116 33.7818 117.267 32.5247 116.091 31.6287C114.916 30.7328 113.478 30.2476 112 30.2476C110.522 30.2476 109.085 30.7328 107.909 31.6287C106.733 32.5247 105.884 33.7818 105.492 35.207C105.1 36.6322 105.186 38.1468 105.738 39.518C106.29 40.8893 107.277 42.0415 108.547 42.7976C105.979 43.6357 103.779 45.4057 102.351 47.8751C102.299 47.9605 102.264 48.0555 102.249 48.1545C102.234 48.2535 102.239 48.3545 102.264 48.4516C102.288 48.5487 102.332 48.6399 102.393 48.7197C102.453 48.7996 102.529 48.8666 102.615 48.9167C102.702 48.9667 102.798 48.999 102.897 49.0114C102.997 49.0238 103.098 49.0163 103.194 48.9891C103.29 48.9619 103.38 48.9157 103.459 48.8532C103.537 48.7907 103.602 48.7131 103.65 48.6251C105.416 45.5726 108.538 43.7501 112 43.7501C115.462 43.7501 118.584 45.5726 120.35 48.6251C120.398 48.7131 120.463 48.7907 120.541 48.8532C120.62 48.9157 120.71 48.9619 120.806 48.9891C120.902 49.0163 121.003 49.0238 121.103 49.0114C121.202 48.999 121.298 48.9667 121.385 48.9167C121.471 48.8666 121.547 48.7996 121.608 48.7197C121.668 48.6399 121.712 48.5487 121.736 48.4516C121.761 48.3545 121.766 48.2535 121.751 48.1545C121.736 48.0555 121.701 47.9605 121.649 47.8751ZM106.75 37.0001C106.75 35.9618 107.058 34.9467 107.635 34.0834C108.212 33.22 109.032 32.5471 109.991 32.1497C110.95 31.7524 112.006 31.6484 113.024 31.851C114.043 32.0536 114.978 32.5536 115.712 33.2878C116.447 34.022 116.947 34.9575 117.149 35.9759C117.352 36.9943 117.248 38.0499 116.85 39.0092C116.453 39.9685 115.78 40.7884 114.917 41.3653C114.053 41.9422 113.038 42.2501 112 42.2501C110.608 42.2486 109.274 41.695 108.289 40.7108C107.305 39.7265 106.751 38.392 106.75 37.0001Z" fill="#F4F5F6"/>
<line x1="193" y1="39.5" x2="252" y2="39.5" stroke="#4C1D95" stroke-opacity="0.4" stroke-dasharray="4 8"/>
<circle cx="266" cy="40" r="5" stroke="#4C1D95" stroke-opacity="0.4" stroke-width="2"/>
<circle cx="182" cy="40" r="5" stroke="#4C1D95" stroke-opacity="0.4" stroke-width="2"/>
<rect x="296" width="80" height="80" rx="16" fill="#4C1D95" fill-opacity="0.4"/>
<path d="M346.95 42.0999C346.871 42.159 346.782 42.202 346.686 42.2265C346.591 42.2509 346.491 42.2563 346.394 42.2424C346.296 42.2285 346.203 42.1955 346.118 42.1453C346.033 42.0951 345.959 42.0287 345.9 41.9499C345.448 41.3423 344.86 40.8493 344.182 40.5106C343.505 40.1719 342.757 39.997 342 39.9999C341.853 39.9999 341.708 39.9564 341.585 39.8749C341.463 39.7933 341.366 39.6774 341.309 39.5415C341.27 39.4492 341.25 39.3501 341.25 39.2499C341.25 39.1498 341.27 39.0506 341.309 38.9584C341.366 38.8225 341.463 38.7065 341.585 38.625C341.708 38.5434 341.853 38.4999 342 38.4999C342.421 38.4999 342.833 38.3818 343.19 38.1592C343.547 37.9365 343.835 37.6182 344.02 37.2403C344.205 36.8625 344.281 36.4403 344.238 36.0216C344.195 35.603 344.036 35.2047 343.779 34.872C343.521 34.5393 343.175 34.2856 342.78 34.1396C342.386 33.9937 341.958 33.9613 341.546 34.0462C341.134 34.1311 340.753 34.33 340.449 34.6201C340.144 34.9102 339.926 35.28 339.821 35.6874C339.797 35.7828 339.753 35.8725 339.694 35.9512C339.635 36.0299 339.561 36.0962 339.476 36.1463C339.391 36.1963 339.297 36.2292 339.2 36.2429C339.102 36.2567 339.003 36.2511 338.907 36.2265C338.812 36.2019 338.722 36.1587 338.643 36.0994C338.565 36.0402 338.498 35.966 338.448 35.8811C338.398 35.7962 338.365 35.7023 338.352 35.6047C338.338 35.5072 338.344 35.4078 338.368 35.3124C338.514 34.7474 338.79 34.2243 339.174 33.7846C339.558 33.345 340.039 33.001 340.579 32.78C341.119 32.559 341.703 32.4671 342.285 32.5117C342.867 32.5562 343.43 32.7359 343.931 33.0366C344.431 33.3372 344.854 33.7504 345.166 34.2433C345.479 34.7362 345.672 35.2953 345.73 35.8759C345.788 36.4566 345.71 37.0429 345.502 37.5881C345.294 38.1333 344.962 38.6224 344.531 39.0165C345.551 39.458 346.438 40.1587 347.103 41.049C347.162 41.128 347.205 41.2179 347.229 41.3135C347.253 41.4091 347.259 41.5085 347.244 41.6062C347.23 41.7038 347.197 41.7976 347.146 41.8824C347.096 41.9671 347.029 42.041 346.95 42.0999ZM341.899 47.8749C341.953 47.9603 341.989 48.0557 342.006 48.1556C342.022 48.2554 342.018 48.3575 341.994 48.4557C341.97 48.554 341.927 48.6463 341.866 48.7272C341.805 48.8082 341.729 48.876 341.641 48.9266C341.554 48.9772 341.457 49.0096 341.356 49.0218C341.256 49.034 341.154 49.0258 341.057 48.9976C340.96 48.9694 340.869 48.9219 340.791 48.8578C340.713 48.7938 340.648 48.7146 340.601 48.6249C340.129 47.8249 339.456 47.1619 338.649 46.7014C337.842 46.2408 336.929 45.9986 336 45.9986C335.071 45.9986 334.158 46.2408 333.351 46.7014C332.544 47.1619 331.871 47.8249 331.399 48.6249C331.352 48.7146 331.287 48.7938 331.209 48.8578C331.131 48.9219 331.04 48.9694 330.943 48.9976C330.846 49.0258 330.744 49.034 330.644 49.0218C330.543 49.0096 330.446 48.9772 330.359 48.9266C330.271 48.876 330.195 48.8082 330.134 48.7272C330.073 48.6463 330.03 48.554 330.006 48.4557C329.982 48.3575 329.978 48.2554 329.994 48.1556C330.011 48.0557 330.047 47.9603 330.101 47.8749C330.828 46.6256 331.937 45.6424 333.264 45.0699C332.518 44.4981 331.969 43.7066 331.695 42.8066C331.421 41.9067 331.436 40.9436 331.738 40.0527C332.04 39.1618 332.613 38.3879 333.378 37.8398C334.142 37.2917 335.059 36.9969 336 36.9969C336.941 36.9969 337.858 37.2917 338.622 37.8398C339.387 38.3879 339.96 39.1618 340.262 40.0527C340.564 40.9436 340.579 41.9067 340.305 42.8066C340.031 43.7066 339.483 44.4981 338.736 45.0699C340.063 45.6424 341.172 46.6256 341.899 47.8749ZM336 44.4999C336.593 44.4999 337.173 44.324 337.667 43.9943C338.16 43.6647 338.545 43.1962 338.772 42.648C338.999 42.0998 339.058 41.4966 338.942 40.9147C338.827 40.3327 338.541 39.7982 338.121 39.3786C337.702 38.959 337.167 38.6733 336.585 38.5576C336.003 38.4418 335.4 38.5012 334.852 38.7283C334.304 38.9553 333.835 39.3399 333.506 39.8332C333.176 40.3266 333 40.9066 333 41.4999C333 42.2956 333.316 43.0586 333.879 43.6212C334.441 44.1839 335.204 44.4999 336 44.4999ZM330.75 39.2499C330.75 39.051 330.671 38.8602 330.53 38.7196C330.39 38.5789 330.199 38.4999 330 38.4999C329.579 38.4999 329.167 38.3818 328.81 38.1592C328.453 37.9365 328.165 37.6182 327.98 37.2403C327.795 36.8625 327.719 36.4403 327.762 36.0216C327.805 35.603 327.964 35.2047 328.221 34.872C328.479 34.5393 328.825 34.2856 329.22 34.1396C329.614 33.9937 330.042 33.9613 330.454 34.0462C330.866 34.1311 331.247 34.33 331.551 34.6201C331.856 34.9102 332.074 35.28 332.179 35.6874C332.228 35.8801 332.353 36.0452 332.524 36.1463C332.696 36.2474 332.9 36.2762 333.093 36.2265C333.286 36.1768 333.451 36.0525 333.552 35.8811C333.653 35.7097 333.682 35.5051 333.632 35.3124C333.486 34.7474 333.21 34.2243 332.826 33.7846C332.442 33.345 331.961 33.001 331.421 32.78C330.881 32.559 330.297 32.4671 329.715 32.5117C329.133 32.5562 328.57 32.7359 328.069 33.0366C327.569 33.3372 327.146 33.7504 326.834 34.2433C326.521 34.7362 326.328 35.2953 326.27 35.8759C326.212 36.4566 326.29 37.0429 326.498 37.5881C326.706 38.1333 327.038 38.6224 327.469 39.0165C326.45 39.4585 325.564 40.1591 324.9 41.049C324.781 41.2081 324.729 41.4082 324.757 41.6052C324.785 41.8022 324.89 41.98 325.05 42.0995C325.209 42.2189 325.409 42.2703 325.606 42.2422C325.803 42.2142 325.981 42.1091 326.1 41.9499C326.552 41.3423 327.14 40.8493 327.818 40.5106C328.495 40.1719 329.243 39.997 330 39.9999C330.199 39.9999 330.39 39.9209 330.53 39.7803C330.671 39.6396 330.75 39.4488 330.75 39.2499Z" fill="#F4F5F6"/>
<line x1="417" y1="39.5" x2="476" y2="39.5" stroke="#4C1D95" stroke-opacity="0.4" stroke-dasharray="4 8"/>
<circle cx="490" cy="40" r="5" stroke="#4C1D95" stroke-opacity="0.4" stroke-width="2"/>
<circle cx="406" cy="40" r="5" stroke="#4C1D95" stroke-opacity="0.4" stroke-width="2"/>
<rect x="520" width="80" height="80" rx="16" fill="#4C1D95" fill-opacity="0.4"/>
<path d="M564.5 38.5H562.25C562.051 38.5 561.86 38.421 561.72 38.2803C561.579 38.1397 561.5 37.9489 561.5 37.75C561.5 37.5511 561.579 37.3603 561.72 37.2197C561.86 37.079 562.051 37 562.25 37H564.5C564.699 37 564.89 37.079 565.03 37.2197C565.171 37.3603 565.25 37.5511 565.25 37.75C565.25 37.9489 565.171 38.1397 565.03 38.2803C564.89 38.421 564.699 38.5 564.5 38.5ZM557.75 37H557V36.25C557 36.0511 556.921 35.8603 556.78 35.7197C556.64 35.579 556.449 35.5 556.25 35.5C556.051 35.5 555.86 35.579 555.72 35.7197C555.579 35.8603 555.5 36.0511 555.5 36.25V37H554.75C554.551 37 554.36 37.079 554.22 37.2197C554.079 37.3603 554 37.5511 554 37.75C554 37.9489 554.079 38.1397 554.22 38.2803C554.36 38.421 554.551 38.5 554.75 38.5H555.5V39.25C555.5 39.4489 555.579 39.6397 555.72 39.7803C555.86 39.921 556.051 40 556.25 40C556.449 40 556.64 39.921 556.78 39.7803C556.921 39.6397 557 39.4489 557 39.25V38.5H557.75C557.949 38.5 558.14 38.421 558.28 38.2803C558.421 38.1397 558.5 37.9489 558.5 37.75C558.5 37.5511 558.421 37.3603 558.28 37.2197C558.14 37.079 557.949 37 557.75 37ZM570.639 46.8109C570.356 47.2146 569.988 47.5514 569.562 47.7978C569.135 48.0442 568.659 48.1941 568.169 48.2371C567.678 48.2801 567.183 48.2151 566.72 48.0466C566.257 47.8781 565.837 47.6103 565.488 47.2619C565.477 47.2506 565.466 47.2394 565.455 47.2272L561.733 43H558.264L554.545 47.2272L554.512 47.2619C553.878 47.8941 553.02 48.2494 552.125 48.25C551.632 48.2498 551.146 48.1418 550.699 47.9334C550.253 47.7251 549.857 47.4215 549.54 47.044C549.224 46.6665 548.994 46.2242 548.866 45.7483C548.739 45.2724 548.717 44.7743 548.803 44.2891C548.802 44.2847 548.802 44.2803 548.803 44.2759L550.337 36.3925C550.566 35.0923 551.245 33.9141 552.256 33.065C553.267 32.216 554.545 31.7504 555.865 31.75H564.125C565.441 31.7521 566.715 32.2151 567.725 33.0585C568.736 33.9019 569.419 35.0726 569.656 36.3672C569.656 36.3728 569.656 36.3784 569.656 36.3841L571.191 44.275C571.191 44.2794 571.191 44.2838 571.191 44.2881C571.27 44.7243 571.262 45.1718 571.168 45.6049C571.073 46.0379 570.893 46.4479 570.639 46.8109ZM564.125 41.5C565.219 41.5 566.268 41.0654 567.042 40.2918C567.815 39.5182 568.25 38.469 568.25 37.375C568.25 36.281 567.815 35.2318 567.042 34.4582C566.268 33.6846 565.219 33.25 564.125 33.25H555.865C554.896 33.2509 553.959 33.5933 553.218 34.2169C552.477 34.8406 551.98 35.7056 551.814 36.6597V36.6719L550.278 44.5553C550.21 44.9461 550.268 45.3484 550.443 45.7043C550.619 46.0602 550.902 46.3514 551.253 46.5359C551.604 46.7204 552.005 46.7889 552.398 46.7313C552.79 46.6738 553.154 46.4932 553.438 46.2156L557.368 41.7541C557.438 41.6742 557.524 41.6103 557.621 41.5665C557.718 41.5227 557.824 41.5 557.93 41.5H564.125ZM569.722 44.5553L568.903 40.3366C568.399 41.1503 567.695 41.822 566.859 42.2881C566.023 42.7542 565.082 42.9992 564.125 43H563.731L566.563 46.2166C566.776 46.4242 567.036 46.5783 567.32 46.6661C567.605 46.7539 567.906 46.773 568.199 46.7219C568.688 46.6356 569.123 46.3591 569.408 45.953C569.693 45.5469 569.806 45.0443 569.721 44.5553H569.722Z" fill="#F4F5F6"/>
<line x1="641" y1="39.5" x2="700" y2="39.5" stroke="#4C1D95" stroke-opacity="0.4" stroke-dasharray="4 8"/>
<circle cx="714" cy="40" r="5" stroke="#4C1D95" stroke-opacity="0.4" stroke-width="2"/>
<circle cx="630" cy="40" r="5" stroke="#4C1D95" stroke-opacity="0.4" stroke-width="2"/>
<rect x="744" width="80" height="80" rx="16" fill="#4C1D95" fill-opacity="0.4"/>
<path d="M789.25 36.3972V35.875C789.25 33.5238 785.703 31.75 781 31.75C776.297 31.75 772.75 33.5238 772.75 35.875V39.625C772.75 41.5834 775.211 43.1397 778.75 43.6056V44.125C778.75 46.4762 782.297 48.25 787 48.25C791.703 48.25 795.25 46.4762 795.25 44.125V40.375C795.25 38.4344 792.867 36.8762 789.25 36.3972ZM793.75 40.375C793.75 41.6144 790.863 43 787 43C786.65 43 786.303 42.9878 785.961 42.9653C787.983 42.2284 789.25 41.0312 789.25 39.625V37.9131C792.05 38.3303 793.75 39.4628 793.75 40.375ZM778.75 42.0859V39.8556C779.496 39.9528 780.248 40.0011 781 40C781.752 40.0011 782.504 39.9528 783.25 39.8556V42.0859C782.505 42.196 781.753 42.2508 781 42.25C780.247 42.2508 779.495 42.196 778.75 42.0859ZM787.75 38.3059V39.625C787.75 40.4116 786.587 41.2562 784.75 41.7691V39.5781C785.96 39.2847 786.985 38.8478 787.75 38.3059ZM781 33.25C784.863 33.25 787.75 34.6356 787.75 35.875C787.75 37.1144 784.863 38.5 781 38.5C777.137 38.5 774.25 37.1144 774.25 35.875C774.25 34.6356 777.137 33.25 781 33.25ZM774.25 39.625V38.3059C775.015 38.8478 776.04 39.2847 777.25 39.5781V41.7691C775.413 41.2562 774.25 40.4116 774.25 39.625ZM780.25 44.125V43.7341C780.497 43.7434 780.746 43.75 781 43.75C781.364 43.75 781.719 43.7378 782.068 43.7172C782.455 43.8559 782.85 43.9736 783.25 44.0697V46.2691C781.413 45.7562 780.25 44.9116 780.25 44.125ZM784.75 46.5859V44.35C785.496 44.4503 786.247 44.5004 787 44.5C787.752 44.5011 788.504 44.4528 789.25 44.3556V46.5859C787.758 46.8047 786.242 46.8047 784.75 46.5859ZM790.75 46.2691V44.0781C791.96 43.7847 792.985 43.3478 793.75 42.8059V44.125C793.75 44.9116 792.587 45.7562 790.75 46.2691Z" fill="#F4F5F6"/>
<line x1="865" y1="39.5" x2="924" y2="39.5" stroke="#4C1D95" stroke-opacity="0.4" stroke-dasharray="4 8"/>
<circle cx="938" cy="40" r="5" stroke="#4C1D95" stroke-opacity="0.4" stroke-width="2"/>
<circle cx="854" cy="40" r="5" stroke="#4C1D95" stroke-opacity="0.4" stroke-width="2"/>
<rect x="968" width="80" height="80" rx="16" fill="#4C1D95" fill-opacity="0.4"/>
<path d="M1015.5 31H1013.25V30.25C1013.25 30.0511 1013.17 29.8603 1013.03 29.7197C1012.89 29.579 1012.7 29.5 1012.5 29.5C1012.3 29.5 1012.11 29.579 1011.97 29.7197C1011.83 29.8603 1011.75 30.0511 1011.75 30.25V31H1004.25V30.25C1004.25 30.0511 1004.17 29.8603 1004.03 29.7197C1003.89 29.579 1003.7 29.5 1003.5 29.5C1003.3 29.5 1003.11 29.579 1002.97 29.7197C1002.83 29.8603 1002.75 30.0511 1002.75 30.25V31H1000.5C1000.1 31 999.721 31.158 999.439 31.4393C999.158 31.7206 999 32.1022 999 32.5V47.5C999 47.8978 999.158 48.2794 999.439 48.5607C999.721 48.842 1000.1 49 1000.5 49H1015.5C1015.9 49 1016.28 48.842 1016.56 48.5607C1016.84 48.2794 1017 47.8978 1017 47.5V32.5C1017 32.1022 1016.84 31.7206 1016.56 31.4393C1016.28 31.158 1015.9 31 1015.5 31ZM1002.75 32.5V33.25C1002.75 33.4489 1002.83 33.6397 1002.97 33.7803C1003.11 33.921 1003.3 34 1003.5 34C1003.7 34 1003.89 33.921 1004.03 33.7803C1004.17 33.6397 1004.25 33.4489 1004.25 33.25V32.5H1011.75V33.25C1011.75 33.4489 1011.83 33.6397 1011.97 33.7803C1012.11 33.921 1012.3 34 1012.5 34C1012.7 34 1012.89 33.921 1013.03 33.7803C1013.17 33.6397 1013.25 33.4489 1013.25 33.25V32.5H1015.5V35.5H1000.5V32.5H1002.75ZM1015.5 47.5H1000.5V37H1015.5V47.5ZM1011.91 39.4694C1011.98 39.539 1012.03 39.6217 1012.07 39.7128C1012.11 39.8038 1012.13 39.9014 1012.13 40C1012.13 40.0986 1012.11 40.1962 1012.07 40.2872C1012.03 40.3783 1011.98 40.461 1011.91 40.5306L1007.41 45.0306C1007.34 45.1004 1007.25 45.1557 1007.16 45.1934C1007.07 45.2312 1006.97 45.2506 1006.88 45.2506C1006.78 45.2506 1006.68 45.2312 1006.59 45.1934C1006.5 45.1557 1006.41 45.1004 1006.34 45.0306L1004.09 42.7806C1003.95 42.6399 1003.87 42.449 1003.87 42.25C1003.87 42.051 1003.95 41.8601 1004.09 41.7194C1004.24 41.5786 1004.43 41.4996 1004.62 41.4996C1004.82 41.4996 1005.01 41.5786 1005.16 41.7194L1006.88 43.4397L1010.84 39.4694C1010.91 39.3996 1011 39.3443 1011.09 39.3066C1011.18 39.2688 1011.28 39.2494 1011.38 39.2494C1011.47 39.2494 1011.57 39.2688 1011.66 39.3066C1011.75 39.3443 1011.84 39.3996 1011.91 39.4694Z" fill="#F4F5F6"/>
</svg>
