<svg width="80" height="80" viewBox="0 0 80 80" fill="none" xmlns="http://www.w3.org/2000/svg">
<rect width="80" height="80" rx="16" fill="#4C1D95" fill-opacity="0.4"/>
<path d="M47.5 31H45.25V30.25C45.25 30.0511 45.171 29.8603 45.0303 29.7197C44.8897 29.579 44.6989 29.5 44.5 29.5C44.3011 29.5 44.1103 29.579 43.9697 29.7197C43.829 29.8603 43.75 30.0511 43.75 30.25V31H36.25V30.25C36.25 30.0511 36.171 29.8603 36.0303 29.7197C35.8897 29.579 35.6989 29.5 35.5 29.5C35.3011 29.5 35.1103 29.579 34.9697 29.7197C34.829 29.8603 34.75 30.0511 34.75 30.25V31H32.5C32.1022 31 31.7206 31.158 31.4393 31.4393C31.158 31.7206 31 32.1022 31 32.5V47.5C31 47.8978 31.158 48.2794 31.4393 48.5607C31.7206 48.842 32.1022 49 32.5 49H47.5C47.8978 49 48.2794 48.842 48.5607 48.5607C48.842 48.2794 49 47.8978 49 47.5V32.5C49 32.1022 48.842 31.7206 48.5607 31.4393C48.2794 31.158 47.8978 31 47.5 31ZM34.75 32.5V33.25C34.75 33.4489 34.829 33.6397 34.9697 33.7803C35.1103 33.921 35.3011 34 35.5 34C35.6989 34 35.8897 33.921 36.0303 33.7803C36.171 33.6397 36.25 33.4489 36.25 33.25V32.5H43.75V33.25C43.75 33.4489 43.829 33.6397 43.9697 33.7803C44.1103 33.921 44.3011 34 44.5 34C44.6989 34 44.8897 33.921 45.0303 33.7803C45.171 33.6397 45.25 33.4489 45.25 33.25V32.5H47.5V35.5H32.5V32.5H34.75ZM47.5 47.5H32.5V37H47.5V47.5ZM43.9056 39.4694C43.9754 39.539 44.0307 39.6217 44.0684 39.7128C44.1062 39.8038 44.1256 39.9014 44.1256 40C44.1256 40.0986 44.1062 40.1962 44.0684 40.2872C44.0307 40.3783 43.9754 40.461 43.9056 40.5306L39.4056 45.0306C39.336 45.1004 39.2533 45.1557 39.1622 45.1934C39.0712 45.2312 38.9736 45.2506 38.875 45.2506C38.7764 45.2506 38.6788 45.2312 38.5878 45.1934C38.4967 45.1557 38.414 45.1004 38.3444 45.0306L36.0944 42.7806C35.9536 42.6399 35.8746 42.449 35.8746 42.25C35.8746 42.051 35.9536 41.8601 36.0944 41.7194C36.2351 41.5786 36.426 41.4996 36.625 41.4996C36.824 41.4996 37.0149 41.5786 37.1556 41.7194L38.875 43.4397L42.8444 39.4694C42.914 39.3996 42.9967 39.3443 43.0878 39.3066C43.1788 39.2688 43.2764 39.2494 43.375 39.2494C43.4736 39.2494 43.5712 39.2688 43.6622 39.3066C43.7533 39.3443 43.836 39.3996 43.9056 39.4694Z" fill="#F4F5F6"/>
</svg>
