<svg width="80" height="80" viewBox="0 0 80 80" fill="none" xmlns="http://www.w3.org/2000/svg">
<rect width="80" height="80" rx="16" fill="#4C1D95" fill-opacity="0.4"/>
<path d="M44.5 38.5H42.25C42.0511 38.5 41.8603 38.421 41.7197 38.2803C41.579 38.1397 41.5 37.9489 41.5 37.75C41.5 37.5511 41.579 37.3603 41.7197 37.2197C41.8603 37.079 42.0511 37 42.25 37H44.5C44.6989 37 44.8897 37.079 45.0303 37.2197C45.171 37.3603 45.25 37.5511 45.25 37.75C45.25 37.9489 45.171 38.1397 45.0303 38.2803C44.8897 38.421 44.6989 38.5 44.5 38.5ZM37.75 37H37V36.25C37 36.0511 36.921 35.8603 36.7803 35.7197C36.6397 35.579 36.4489 35.5 36.25 35.5C36.0511 35.5 35.8603 35.579 35.7197 35.7197C35.579 35.8603 35.5 36.0511 35.5 36.25V37H34.75C34.5511 37 34.3603 37.079 34.2197 37.2197C34.079 37.3603 34 37.5511 34 37.75C34 37.9489 34.079 38.1397 34.2197 38.2803C34.3603 38.421 34.5511 38.5 34.75 38.5H35.5V39.25C35.5 39.4489 35.579 39.6397 35.7197 39.7803C35.8603 39.921 36.0511 40 36.25 40C36.4489 40 36.6397 39.921 36.7803 39.7803C36.921 39.6397 37 39.4489 37 39.25V38.5H37.75C37.9489 38.5 38.1397 38.421 38.2803 38.2803C38.421 38.1397 38.5 37.9489 38.5 37.75C38.5 37.5511 38.421 37.3603 38.2803 37.2197C38.1397 37.079 37.9489 37 37.75 37ZM50.6388 46.8109C50.3561 47.2146 49.9885 47.5514 49.5617 47.7978C49.135 48.0442 48.6595 48.1941 48.1686 48.2371C47.6777 48.2801 47.1833 48.2151 46.7203 48.0466C46.2572 47.8781 45.8366 47.6103 45.4881 47.2619C45.4769 47.2506 45.4656 47.2394 45.4553 47.2272L41.7325 43H38.2638L34.5447 47.2272L34.5119 47.2619C33.8783 47.8941 33.02 48.2494 32.125 48.25C31.6323 48.2498 31.1456 48.1418 30.6991 47.9334C30.2526 47.7251 29.8571 47.4215 29.5405 47.044C29.2238 46.6665 28.9937 46.2242 28.8662 45.7483C28.7387 45.2724 28.717 44.7743 28.8025 44.2891C28.8021 44.2847 28.8021 44.2803 28.8025 44.2759L30.3372 36.3925C30.5656 35.0923 31.2449 33.9141 32.2558 33.065C33.2667 32.216 34.5445 31.7504 35.8647 31.75H44.125C45.4412 31.7521 46.715 32.2151 47.7255 33.0585C48.7359 33.9019 49.419 35.0726 49.6563 36.3672C49.6563 36.3728 49.6563 36.3784 49.6563 36.3841L51.1909 44.275C51.1914 44.2794 51.1914 44.2838 51.1909 44.2881C51.2704 44.7243 51.2625 45.1718 51.1677 45.6049C51.0729 46.0379 50.8931 46.4479 50.6388 46.8109ZM44.125 41.5C45.219 41.5 46.2682 41.0654 47.0418 40.2918C47.8154 39.5182 48.25 38.469 48.25 37.375C48.25 36.281 47.8154 35.2318 47.0418 34.4582C46.2682 33.6846 45.219 33.25 44.125 33.25H35.8647C34.8962 33.2509 33.9591 33.5933 33.2181 34.2169C32.4772 34.8406 31.9799 35.7056 31.8138 36.6597V36.6719L30.2781 44.5553C30.2103 44.9461 30.2681 45.3484 30.4433 45.7043C30.6185 46.0602 30.9021 46.3514 31.2532 46.5359C31.6044 46.7204 32.005 46.7889 32.3975 46.7313C32.79 46.6738 33.1541 46.4932 33.4375 46.2156L37.3675 41.7541C37.4379 41.6742 37.5244 41.6103 37.6214 41.5665C37.7184 41.5227 37.8236 41.5 37.93 41.5H44.125ZM49.7219 44.5553L48.9025 40.3366C48.3986 41.1503 47.6953 41.822 46.8593 42.2881C46.0233 42.7542 45.0822 42.9992 44.125 43H43.7313L46.5625 46.2166C46.776 46.4242 47.0356 46.5783 47.3202 46.6661C47.6047 46.7539 47.906 46.773 48.1994 46.7219C48.6881 46.6356 49.1227 46.3591 49.4079 45.953C49.6931 45.5469 49.8057 45.0443 49.7209 44.5553H49.7219Z" fill="#F4F5F6"/>
</svg>
