<svg width="40" height="40" viewBox="0 0 40 40" fill="none" xmlns="http://www.w3.org/2000/svg">
<rect width="40" height="40" rx="20" fill="#D946EF"/>
<path d="M29.6 28.5491C29.6838 28.6606 29.735 28.7932 29.7476 28.932C29.7603 29.0709 29.734 29.2105 29.6716 29.3353C29.6093 29.46 29.5134 29.5649 29.3948 29.6382C29.2762 29.7115 29.1394 29.7502 29 29.7501H11C10.8607 29.7501 10.7242 29.7113 10.6057 29.6381C10.4872 29.5648 10.3915 29.4601 10.3292 29.3355C10.2669 29.2109 10.2405 29.0714 10.253 28.9327C10.2655 28.794 10.3164 28.6615 10.4 28.5501C11.0641 27.6597 11.9497 26.9587 12.9688 26.5166C12.4102 26.0068 12.0188 25.34 11.846 24.6038C11.6731 23.8676 11.7269 23.0963 12.0003 22.3912C12.2737 21.686 12.7539 21.0801 13.3779 20.6528C14.0019 20.2255 14.7405 19.9968 15.4967 19.9968C16.253 19.9968 16.9916 20.2255 17.6155 20.6528C18.2395 21.0801 18.7197 21.686 18.9931 22.3912C19.2665 23.0963 19.3203 23.8676 19.1475 24.6038C18.9747 25.34 18.5833 26.0068 18.0247 26.5166C18.7599 26.8344 19.428 27.2891 19.9934 27.8563C20.5589 27.2891 21.227 26.8344 21.9622 26.5166C21.4036 26.0068 21.0122 25.34 20.8394 24.6038C20.6666 23.8676 20.7204 23.0963 20.9938 22.3912C21.2672 21.686 21.7474 21.0801 22.3713 20.6528C22.9953 20.2255 23.7339 19.9968 24.4902 19.9968C25.2464 19.9968 25.985 20.2255 26.609 20.6528C27.2329 21.0801 27.7131 21.686 27.9865 22.3912C28.2599 23.0963 28.3137 23.8676 28.1409 24.6038C27.9681 25.34 27.5767 26.0068 27.0181 26.5166C28.0419 26.9563 28.9322 27.6572 29.6 28.5491ZM10.55 19.8501C10.6288 19.9092 10.7185 19.9522 10.8139 19.9766C10.9093 20.0011 11.0086 20.0065 11.1061 19.9925C11.2036 19.9786 11.2974 19.9456 11.3821 19.8954C11.4669 19.8453 11.5409 19.7789 11.6 19.7001C12.0541 19.0946 12.6429 18.6032 13.3198 18.2647C13.9968 17.9263 14.7432 17.7501 15.5 17.7501C16.2568 17.7501 17.0032 17.9263 17.6802 18.2647C18.3571 18.6032 18.9459 19.0946 19.4 19.7001C19.4699 19.7932 19.5604 19.8688 19.6646 19.9209C19.7687 19.973 19.8836 20.0001 20 20.0001C20.1164 20.0001 20.2313 19.973 20.3354 19.9209C20.4396 19.8688 20.5301 19.7932 20.6 19.7001C21.0541 19.0946 21.6429 18.6032 22.3198 18.2647C22.9968 17.9263 23.7432 17.7501 24.5 17.7501C25.2568 17.7501 26.0032 17.9263 26.6802 18.2647C27.3571 18.6032 27.9459 19.0946 28.4 19.7001C28.4592 19.7789 28.5333 19.8452 28.6181 19.8954C28.7029 19.9456 28.7967 19.9785 28.8943 19.9924C28.9918 20.0063 29.0911 20.0008 29.1866 19.9763C29.282 19.9518 29.3717 19.9088 29.4505 19.8496C29.5293 19.7905 29.5956 19.7164 29.6458 19.6316C29.6959 19.5467 29.7289 19.4529 29.7428 19.3553C29.7567 19.2578 29.7512 19.1585 29.7267 19.063C29.7022 18.9676 29.6592 18.8779 29.6 18.7991C28.9359 17.909 28.0503 17.2083 27.0312 16.7666C27.5898 16.2568 27.9812 15.59 28.154 14.8538C28.3269 14.1176 28.2731 13.3463 27.9997 12.6412C27.7263 11.936 27.2461 11.3301 26.6221 10.9028C25.9981 10.4755 25.2595 10.2468 24.5033 10.2468C23.747 10.2468 23.0084 10.4755 22.3845 10.9028C21.7605 11.3301 21.2803 11.936 21.0069 12.6412C20.7335 13.3463 20.6797 14.1176 20.8525 14.8538C21.0253 15.59 21.4167 16.2568 21.9753 16.7666C21.2401 17.0844 20.572 17.5391 20.0066 18.1063C19.4411 17.5391 18.773 17.0844 18.0378 16.7666C18.5964 16.2568 18.9878 15.59 19.1606 14.8538C19.3334 14.1176 19.2796 13.3463 19.0062 12.6412C18.7328 11.936 18.2526 11.3301 17.6287 10.9028C17.0047 10.4755 16.2661 10.2468 15.5098 10.2468C14.7536 10.2468 14.015 10.4755 13.391 10.9028C12.7671 11.3301 12.2869 11.936 12.0135 12.6412C11.7401 13.3463 11.6863 14.1176 11.8591 14.8538C12.0319 15.59 12.4233 16.2568 12.9819 16.7666C11.9581 17.2067 11.0677 17.9079 10.4 18.8001C10.3409 18.8789 10.2979 18.9685 10.2735 19.0639C10.249 19.1594 10.2436 19.2586 10.2575 19.3561C10.2715 19.4536 10.3045 19.5475 10.3546 19.6322C10.4048 19.7169 10.4712 19.791 10.55 19.8501Z" fill="#F4F5F6"/>
</svg>
