<svg width="80" height="80" viewBox="0 0 80 80" fill="none" xmlns="http://www.w3.org/2000/svg">
<rect width="80" height="80" rx="16" fill="#4C1D95" fill-opacity="0.4"/>
<path d="M45.25 36.3972V35.875C45.25 33.5238 41.7034 31.75 37 31.75C32.2966 31.75 28.75 33.5238 28.75 35.875V39.625C28.75 41.5834 31.2109 43.1397 34.75 43.6056V44.125C34.75 46.4762 38.2966 48.25 43 48.25C47.7034 48.25 51.25 46.4762 51.25 44.125V40.375C51.25 38.4344 48.8669 36.8762 45.25 36.3972ZM49.75 40.375C49.75 41.6144 46.8634 43 43 43C42.6503 43 42.3034 42.9878 41.9613 42.9653C43.9834 42.2284 45.25 41.0312 45.25 39.625V37.9131C48.0503 38.3303 49.75 39.4628 49.75 40.375ZM34.75 42.0859V39.8556C35.496 39.9528 36.2477 40.0011 37 40C37.7523 40.0011 38.504 39.9528 39.25 39.8556V42.0859C38.5051 42.196 37.753 42.2508 37 42.25C36.247 42.2508 35.4949 42.196 34.75 42.0859ZM43.75 38.3059V39.625C43.75 40.4116 42.5866 41.2562 40.75 41.7691V39.5781C41.9603 39.2847 42.985 38.8478 43.75 38.3059ZM37 33.25C40.8634 33.25 43.75 34.6356 43.75 35.875C43.75 37.1144 40.8634 38.5 37 38.5C33.1366 38.5 30.25 37.1144 30.25 35.875C30.25 34.6356 33.1366 33.25 37 33.25ZM30.25 39.625V38.3059C31.015 38.8478 32.0397 39.2847 33.25 39.5781V41.7691C31.4134 41.2562 30.25 40.4116 30.25 39.625ZM36.25 44.125V43.7341C36.4966 43.7434 36.7459 43.75 37 43.75C37.3638 43.75 37.7191 43.7378 38.0678 43.7172C38.4552 43.8559 38.8499 43.9736 39.25 44.0697V46.2691C37.4134 45.7562 36.25 44.9116 36.25 44.125ZM40.75 46.5859V44.35C41.4958 44.4503 42.2475 44.5004 43 44.5C43.7523 44.5011 44.504 44.4528 45.25 44.3556V46.5859C43.758 46.8047 42.242 46.8047 40.75 46.5859ZM46.75 46.2691V44.0781C47.9603 43.7847 48.985 43.3478 49.75 42.8059V44.125C49.75 44.9116 48.5866 45.7562 46.75 46.2691Z" fill="#F4F5F6"/>
</svg>
