<svg width="80" height="80" viewBox="0 0 80 80" fill="none" xmlns="http://www.w3.org/2000/svg">
<rect width="80" height="80" rx="16" fill="#4C1D95" fill-opacity="0.4"/>
<path d="M49.6488 47.8751C48.2209 45.4067 46.0206 43.6367 43.4528 42.7976C44.723 42.0415 45.7098 40.8893 46.2618 39.518C46.8137 38.1468 46.9003 36.6322 46.5082 35.207C46.1161 33.7818 45.267 32.5247 44.0912 31.6287C42.9155 30.7328 41.4782 30.2476 40 30.2476C38.5218 30.2476 37.0845 30.7328 35.9088 31.6287C34.7331 32.5247 33.8839 33.7818 33.4918 35.207C33.0997 36.6322 33.1863 38.1468 33.7382 39.518C34.2902 40.8893 35.277 42.0415 36.5472 42.7976C33.9794 43.6357 31.7791 45.4057 30.3513 47.8751C30.2989 47.9605 30.2642 48.0555 30.2491 48.1545C30.2341 48.2535 30.239 48.3545 30.2636 48.4516C30.2883 48.5487 30.3321 48.6399 30.3925 48.7197C30.4529 48.7996 30.5287 48.8666 30.6155 48.9167C30.7022 48.9667 30.7981 48.999 30.8975 49.0114C30.9968 49.0238 31.0977 49.0163 31.1941 48.9891C31.2905 48.9619 31.3805 48.9157 31.4587 48.8532C31.537 48.7907 31.6019 48.7131 31.6497 48.6251C33.4159 45.5726 36.5378 43.7501 40 43.7501C43.4622 43.7501 46.5841 45.5726 48.3503 48.6251C48.3981 48.7131 48.4631 48.7907 48.5413 48.8532C48.6196 48.9157 48.7095 48.9619 48.8059 48.9891C48.9023 49.0163 49.0032 49.0238 49.1026 49.0114C49.2019 48.999 49.2978 48.9667 49.3845 48.9167C49.4713 48.8666 49.5471 48.7996 49.6075 48.7197C49.6679 48.6399 49.7118 48.5487 49.7364 48.4516C49.761 48.3545 49.766 48.2535 49.7509 48.1545C49.7358 48.0555 49.7011 47.9605 49.6488 47.8751ZM34.75 37.0001C34.75 35.9618 35.0579 34.9467 35.6348 34.0834C36.2117 33.22 37.0316 32.5471 37.9909 32.1497C38.9502 31.7524 40.0058 31.6484 41.0242 31.851C42.0426 32.0536 42.9781 32.5536 43.7123 33.2878C44.4465 34.022 44.9466 34.9575 45.1491 35.9759C45.3517 36.9943 45.2477 38.0499 44.8504 39.0092C44.453 39.9685 43.7801 40.7884 42.9168 41.3653C42.0534 41.9422 41.0384 42.2501 40 42.2501C38.6081 42.2486 37.2736 41.695 36.2893 40.7108C35.3051 39.7265 34.7515 38.392 34.75 37.0001Z" fill="#F4F5F6"/>
</svg>
