<svg width="80" height="80" viewBox="0 0 80 80" fill="none" xmlns="http://www.w3.org/2000/svg">
<rect width="80" height="80" rx="16" fill="#4C1D95" fill-opacity="0.4"/>
<path d="M50.95 42.0999C50.8712 42.159 50.7816 42.202 50.6861 42.2265C50.5907 42.2509 50.4914 42.2563 50.3939 42.2424C50.2964 42.2285 50.2026 42.1955 50.1179 42.1453C50.0331 42.0951 49.9591 42.0287 49.9 41.9499C49.448 41.3423 48.8596 40.8493 48.1822 40.5106C47.5048 40.1719 46.7573 39.997 46 39.9999C45.8525 39.9999 45.7083 39.9564 45.5854 39.8749C45.4625 39.7933 45.3664 39.6774 45.3091 39.5415C45.2701 39.4492 45.2501 39.3501 45.2501 39.2499C45.2501 39.1498 45.2701 39.0506 45.3091 38.9584C45.3664 38.8225 45.4625 38.7065 45.5854 38.625C45.7083 38.5434 45.8525 38.4999 46 38.4999C46.4208 38.4999 46.8332 38.3818 47.1903 38.1592C47.5474 37.9365 47.8349 37.6182 48.0201 37.2403C48.2053 36.8625 48.2809 36.4403 48.2382 36.0216C48.1955 35.603 48.0362 35.2047 47.7785 34.872C47.5208 34.5393 47.175 34.2856 46.7803 34.1396C46.3856 33.9937 45.9579 33.9613 45.5457 34.0462C45.1336 34.1311 44.7535 34.33 44.4487 34.6201C44.1438 34.9102 43.9265 35.28 43.8213 35.6874C43.7966 35.7828 43.7535 35.8725 43.6942 35.9512C43.6349 36.0299 43.5608 36.0962 43.4759 36.1463C43.391 36.1963 43.2971 36.2292 43.1995 36.2429C43.1019 36.2567 43.0026 36.2511 42.9072 36.2265C42.8118 36.2019 42.7222 36.1587 42.6434 36.0994C42.5647 36.0402 42.4984 35.966 42.4484 35.8811C42.3983 35.7962 42.3655 35.7023 42.3517 35.6047C42.3379 35.5072 42.3435 35.4078 42.3681 35.3124C42.5142 34.7474 42.79 34.2243 43.1738 33.7846C43.5576 33.345 44.0387 33.001 44.5788 32.78C45.1189 32.559 45.7032 32.4671 46.285 32.5117C46.8669 32.5562 47.4304 32.7359 47.9306 33.0366C48.4308 33.3372 48.8539 33.7504 49.1663 34.2433C49.4787 34.7362 49.6717 35.2953 49.7301 35.8759C49.7884 36.4566 49.7104 37.0429 49.5023 37.5881C49.2942 38.1333 48.9617 38.6224 48.5313 39.0165C49.5511 39.458 50.4376 40.1587 51.1028 41.049C51.1619 41.128 51.2048 41.2179 51.2291 41.3135C51.2534 41.4091 51.2587 41.5085 51.2445 41.6062C51.2303 41.7038 51.1969 41.7976 51.1464 41.8824C51.0959 41.9671 51.0292 42.041 50.95 42.0999ZM45.8988 47.8749C45.953 47.9603 45.9895 48.0557 46.0059 48.1556C46.0223 48.2554 46.0184 48.3575 45.9943 48.4557C45.9702 48.554 45.9265 48.6463 45.8658 48.7272C45.8052 48.8082 45.7287 48.876 45.6412 48.9266C45.5536 48.9772 45.4567 49.0096 45.3563 49.0218C45.2558 49.034 45.154 49.0258 45.0569 48.9976C44.9597 48.9694 44.8693 48.9219 44.791 48.8578C44.7127 48.7938 44.6481 48.7146 44.6013 48.6249C44.1288 47.8249 43.4559 47.1619 42.649 46.7014C41.8421 46.2408 40.9291 45.9986 40 45.9986C39.0709 45.9986 38.1579 46.2408 37.351 46.7014C36.5441 47.1619 35.8712 47.8249 35.3988 48.6249C35.3519 48.7146 35.2873 48.7938 35.209 48.8578C35.1307 48.9219 35.0403 48.9694 34.9432 48.9976C34.846 49.0258 34.7442 49.034 34.6438 49.0218C34.5433 49.0096 34.4464 48.9772 34.3589 48.9266C34.2713 48.876 34.1949 48.8082 34.1342 48.7272C34.0735 48.6463 34.0298 48.554 34.0057 48.4557C33.9817 48.3575 33.9777 48.2554 33.9941 48.1556C34.0106 48.0557 34.047 47.9603 34.1013 47.8749C34.8284 46.6256 35.9371 45.6424 37.2644 45.0699C36.5175 44.4981 35.9686 43.7066 35.6948 42.8066C35.421 41.9067 35.4362 40.9436 35.7381 40.0527C36.0399 39.1618 36.6134 38.3879 37.3779 37.8398C38.1423 37.2917 39.0594 36.9969 40 36.9969C40.9407 36.9969 41.8577 37.2917 42.6221 37.8398C43.3866 38.3879 43.9601 39.1618 44.262 40.0527C44.5639 40.9436 44.579 41.9067 44.3052 42.8066C44.0314 43.7066 43.4825 44.4981 42.7356 45.0699C44.063 45.6424 45.1716 46.6256 45.8988 47.8749ZM40 44.4999C40.5934 44.4999 41.1734 44.324 41.6667 43.9943C42.1601 43.6647 42.5446 43.1962 42.7716 42.648C42.9987 42.0998 43.0581 41.4966 42.9424 40.9147C42.8266 40.3327 42.5409 39.7982 42.1213 39.3786C41.7018 38.959 41.1672 38.6733 40.5853 38.5576C40.0033 38.4418 39.4001 38.5012 38.852 38.7283C38.3038 38.9553 37.8352 39.3399 37.5056 39.8332C37.176 40.3266 37 40.9066 37 41.4999C37 42.2956 37.3161 43.0586 37.8787 43.6212C38.4413 44.1839 39.2044 44.4999 40 44.4999ZM34.75 39.2499C34.75 39.051 34.671 38.8602 34.5303 38.7196C34.3897 38.5789 34.1989 38.4999 34 38.4999C33.5792 38.4999 33.1668 38.3818 32.8097 38.1592C32.4526 37.9365 32.1652 37.6182 31.9799 37.2403C31.7947 36.8625 31.7191 36.4403 31.7618 36.0216C31.8045 35.603 31.9638 35.2047 32.2215 34.872C32.4792 34.5393 32.825 34.2856 33.2197 34.1396C33.6144 33.9937 34.0421 33.9613 34.4543 34.0462C34.8664 34.1311 35.2465 34.33 35.5514 34.6201C35.8562 34.9102 36.0736 35.28 36.1788 35.6874C36.2285 35.8801 36.3527 36.0452 36.5241 36.1463C36.6956 36.2474 36.9001 36.2762 37.0928 36.2265C37.2855 36.1768 37.4506 36.0525 37.5517 35.8811C37.6528 35.7097 37.6816 35.5051 37.6319 35.3124C37.4859 34.7474 37.21 34.2243 36.8262 33.7846C36.4424 33.345 35.9613 33.001 35.4212 32.78C34.8811 32.559 34.2968 32.4671 33.715 32.5117C33.1331 32.5562 32.5696 32.7359 32.0694 33.0366C31.5692 33.3372 31.1461 33.7504 30.8337 34.2433C30.5213 34.7362 30.3283 35.2953 30.2699 35.8759C30.2116 36.4566 30.2896 37.0429 30.4977 37.5881C30.7059 38.1333 31.0383 38.6224 31.4688 39.0165C30.45 39.4585 29.5644 40.1591 28.9 41.049C28.7805 41.2081 28.7292 41.4082 28.7572 41.6052C28.7853 41.8022 28.8904 41.98 29.0495 42.0995C29.2087 42.2189 29.4087 42.2703 29.6057 42.2422C29.8027 42.2142 29.9805 42.1091 30.1 41.9499C30.5521 41.3423 31.1405 40.8493 31.8178 40.5106C32.4952 40.1719 33.2427 39.997 34 39.9999C34.1989 39.9999 34.3897 39.9209 34.5303 39.7803C34.671 39.6396 34.75 39.4488 34.75 39.2499Z" fill="#F4F5F6"/>
</svg>
